<svg width="24" height="24" viewBox="0 0 24 24" fill="none" xmlns="http://www.w3.org/2000/svg">
<path d="M21.4999 7.75029H18.2147C18.0727 6.21722 17.4817 4.88365 16.4416 3.7496C15.2206 2.41653 13.74 1.75 11.9999 1.75C10.2608 1.75 8.78027 2.41653 7.55821 3.7496C6.51816 4.88365 5.92663 6.21722 5.78363 7.75029H2.49847C2.38989 7.75041 2.28263 7.77411 2.18411 7.81974C2.08558 7.86536 1.99814 7.93184 1.92782 8.01457C1.8575 8.0973 1.80598 8.19431 1.77682 8.2989C1.74766 8.40348 1.74156 8.51316 1.75893 8.62033L3.85903 21.62C3.88755 21.7959 3.97779 21.9559 4.11358 22.0714C4.24937 22.1868 4.42183 22.2502 4.60007 22.25H19.3998C19.578 22.2502 19.7505 22.1868 19.8863 22.0714C20.0221 21.9559 20.1123 21.7959 20.1408 21.62L22.2409 8.61883C22.2583 8.51153 22.2522 8.40173 22.2229 8.29703C22.1937 8.19234 22.142 8.09525 22.0716 8.0125C22.0011 7.92974 21.9134 7.8633 21.8147 7.81776C21.716 7.77223 21.6086 7.7487 21.4999 7.74879V7.75029ZM15.3361 4.76515C16.1131 5.61219 16.5702 6.60724 16.7072 7.75029H7.2927C7.42971 6.60724 7.88673 5.61219 8.66377 4.76515C9.58781 3.7541 10.6999 3.24857 11.9999 3.24857C13.299 3.24857 14.411 3.7536 15.3361 4.76365V4.76515ZM3.38051 9.25037H20.6194L18.7623 20.7499H5.2376L3.38051 9.25037Z" fill="#374151"/>
<path d="M9.49935 13.0005C9.49935 13.0656 9.49335 13.1306 9.48135 13.1956C9.46835 13.2596 9.44935 13.3221 9.42435 13.3831C9.39835 13.4431 9.36735 13.5006 9.33135 13.5556C9.29434 13.6106 9.25284 13.6611 9.20684 13.7071C9.16084 13.7531 9.11033 13.7946 9.05533 13.8316C9.00033 13.8676 8.94283 13.8986 8.88282 13.9246C8.82282 13.9496 8.76032 13.9686 8.69531 13.9816C8.63031 13.9936 8.56531 13.9996 8.5003 13.9996C8.4343 13.9996 8.3693 13.9936 8.3053 13.9816C8.24029 13.9686 8.17779 13.9496 8.11779 13.9246C8.05678 13.8986 7.99878 13.8676 7.94378 13.8316C7.88977 13.7946 7.83977 13.7531 7.79377 13.7071C7.74677 13.6611 7.70477 13.6111 7.66776 13.5571C7.63176 13.5011 7.60126 13.4431 7.57626 13.3831C7.55126 13.3231 7.53226 13.2606 7.51926 13.1956C7.50626 13.1306 7.49976 13.0656 7.49976 13.0005C7.49976 12.9345 7.50626 12.8695 7.51926 12.8055C7.53226 12.7405 7.55126 12.678 7.57626 12.618C7.60126 12.557 7.63176 12.499 7.66776 12.444C7.70477 12.39 7.74627 12.34 7.79227 12.294C7.83927 12.247 7.88977 12.205 7.94378 12.168C7.99878 12.132 8.05678 12.1015 8.11779 12.0765C8.17779 12.0515 8.24029 12.0325 8.3053 12.0195C8.3683 12.0065 8.4333 12 8.5003 12C8.56531 12 8.63031 12.0065 8.69531 12.0195C8.75932 12.0325 8.82182 12.0515 8.88282 12.0765C8.94283 12.1015 9.00033 12.132 9.05533 12.168C9.11033 12.205 9.16084 12.2465 9.20684 12.2925C9.25284 12.3395 9.29434 12.39 9.33135 12.444C9.36735 12.499 9.39835 12.557 9.42435 12.618C9.44935 12.678 9.46835 12.7405 9.48135 12.8055C9.49335 12.8695 9.49935 12.9345 9.49935 13.0005Z" fill="#374151"/>
<path d="M9.58212 16.0278C9.59701 16.0461 9.61103 16.0651 9.62413 16.0848C10.1422 16.8618 10.9342 17.2503 12.0002 17.2503C13.0663 17.2503 13.8583 16.8618 14.3764 16.0848C14.4446 15.9821 14.5372 15.8979 14.6458 15.8396C14.7543 15.7812 14.8756 15.7506 14.9989 15.7502H15.0004C15.1988 15.7502 15.3891 15.8289 15.5297 15.9689C15.6703 16.1089 15.7496 16.2989 15.7504 16.4973V16.5003C15.7503 16.6482 15.7065 16.7927 15.6244 16.9158C14.8094 18.1389 13.6013 18.7504 12.0002 18.7504C10.4002 18.7504 9.19211 18.1394 8.37607 16.9173C8.26735 16.7547 8.22644 16.5561 8.26206 16.3638L8.26506 16.3533C8.2931 16.2139 8.3602 16.0853 8.45853 15.9826C8.55685 15.8798 8.68236 15.8072 8.82041 15.773C8.95846 15.7389 9.10337 15.7448 9.23824 15.7898C9.3731 15.8349 9.49237 15.9175 9.58212 16.0278Z" fill="#374151"/>
<path d="M16.5003 13.0005C16.5003 13.0656 16.4938 13.1306 16.4808 13.1956C16.4678 13.2596 16.4488 13.3221 16.4238 13.3831C16.3988 13.4431 16.3683 13.5006 16.3323 13.5556C16.2953 13.6106 16.2538 13.6611 16.2078 13.7071C16.1608 13.7531 16.1103 13.7946 16.0563 13.8316C16.0013 13.8676 15.9433 13.8986 15.8823 13.9246C15.8223 13.9496 15.7598 13.9686 15.6948 13.9816C15.6308 13.9936 15.5658 13.9996 15.4998 13.9996C15.4348 13.9996 15.3698 13.9936 15.3048 13.9816C15.2408 13.9686 15.1783 13.9496 15.1173 13.9246C15.0573 13.8986 14.9998 13.8676 14.9448 13.8316C14.8898 13.7946 14.8392 13.7531 14.7932 13.7071C14.7462 13.6611 14.7047 13.6111 14.6687 13.5571C14.6327 13.5011 14.6017 13.4431 14.5757 13.3831C14.5507 13.3231 14.5317 13.2606 14.5187 13.1956C14.5067 13.1306 14.5007 13.0656 14.5007 13.0005C14.5007 12.9345 14.5067 12.8695 14.5187 12.8055C14.5317 12.7405 14.5507 12.678 14.5757 12.618C14.6017 12.557 14.6327 12.499 14.6687 12.444C14.7047 12.39 14.7462 12.34 14.7932 12.294C14.8392 12.247 14.8893 12.205 14.9433 12.168C14.9993 12.132 15.0573 12.1015 15.1173 12.0765C15.1773 12.0515 15.2398 12.0325 15.3048 12.0195C15.3698 12.0065 15.4348 12 15.4998 12C15.5658 12 15.6308 12.0065 15.6948 12.0195C15.7598 12.0325 15.8223 12.0515 15.8823 12.0765C15.9433 12.1015 16.0013 12.132 16.0563 12.168C16.1103 12.205 16.1603 12.2465 16.2063 12.2925C16.2533 12.3395 16.2953 12.39 16.3323 12.444C16.3683 12.499 16.3988 12.557 16.4238 12.618C16.4488 12.678 16.4678 12.7405 16.4808 12.8055C16.4938 12.8695 16.5003 12.9345 16.5003 13.0005Z" fill="#374151"/>
</svg>
